<?xml version="1.0" encoding="iso-8859-1"?>
<!-- Generator: Adobe Illustrator 19.0.0, SVG Export Plug-In . SVG Version: 6.00 Build 0)  -->
<svg version="1.1" id="Layer_1" xmlns="http://www.w3.org/2000/svg" xmlns:xlink="http://www.w3.org/1999/xlink" x="0px" y="0px"
	 viewBox="0 0 208 208" style="enable-background:new 0 0 208 208;" xml:space="preserve">
<g>
	<g>
		<g>
			<path d="M145.984,20h-23.984V4c0-2.211-1.789-4-4-4h-28c-2.211,0-4,1.789-4,4v16H62.015c-6.625,0-12.016,5.371-12.016,11.969
				v164.066c0,6.598,5.391,11.965,12.016,11.965h83.969c6.625,0,12.016-5.367,12.016-11.965V31.969
				C157.999,25.371,152.609,20,145.984,20z M93.999,8h20v12h-20V8z M149.999,196.035c0,2.188-1.801,3.965-4.016,3.965H62.015
				c-2.215,0-4.016-1.777-4.016-3.965V31.969c0-2.227,1.766-3.969,4.016-3.969h27.984h28h27.984c2.215,0,4.016,1.781,4.016,3.969
				V196.035z"/>
			<path d="M135.004,105.621l-30.812-4.199l2.922-43.152c0.129-1.953-1.168-3.715-3.074-4.164c-1.914-0.43-3.856,0.551-4.609,2.356
				l-27.395,65.625c-0.484,1.164-0.394,2.488,0.25,3.574c0.641,1.086,1.758,1.808,3.016,1.942l27.719,2.976l-10.102,44.5
				c-0.438,1.938,0.609,3.898,2.457,4.617c0.473,0.184,0.961,0.27,1.445,0.27c1.402,0,2.75-0.742,3.48-2.027l37.644-66.379
				c0.652-1.152,0.692-2.558,0.106-3.746C137.46,106.621,136.32,105.801,135.004,105.621z M106.726,150.391l5.09-22.422
				c0.25-1.113,0.016-2.281-0.648-3.211s-1.692-1.531-2.828-1.652l-26.859-2.887l16.016-38.363l-1.539,22.754
				c-0.141,2.098,1.367,3.949,3.453,4.234l28.66,3.906L106.726,150.391z"/>
		</g>
	</g>
</g>
<g>
</g>
<g>
</g>
<g>
</g>
<g>
</g>
<g>
</g>
<g>
</g>
<g>
</g>
<g>
</g>
<g>
</g>
<g>
</g>
<g>
</g>
<g>
</g>
<g>
</g>
<g>
</g>
<g>
</g>
</svg>
